HIERARCHY
ROOT hip
{
  OFFSET 0.00112043 5.09927 -9.65472
  CHANNELS 6 Xposition Yposition Zposition Zrotation Xrotation Yrotation
  JOINT abdomen
  {
    OFFSET 0 -1.186 -1.5018
    CHANNELS 3 Zrotation Xrotation Yrotation
    JOINT abdomen2
    {
      OFFSET 0 9.964 0.2134
      CHANNELS 3 Zrotation Xrotation Yrotation
      JOINT chest
      {
        OFFSET 0 13.134 -3.2573
        CHANNELS 3 Zrotation Xrotation Yrotation
        JOINT neck
        {
          OFFSET 0 20.686 -1.6905
          CHANNELS 3 Zrotation Xrotation Yrotation
          JOINT head
          {
            OFFSET 0 7.238 -0.1237
            CHANNELS 3 Zrotation Xrotation Yrotation
            End Site
            {
              OFFSET 0 0 0
            }
          }
        }
        JOINT lCollar
        {
          OFFSET 1.7069 20.075 5.0056
          CHANNELS 3 Zrotation Xrotation Yrotation
          JOINT lShldr
          {
            OFFSET 13.6458 -0.047 -4.849
            CHANNELS 3 Zrotation Xrotation Yrotation
            JOINT lForeArm
            {
              OFFSET 28.3255 -0.9759 2.2888
              CHANNELS 3 Zrotation Xrotation Yrotation
              JOINT lHand
              {
                OFFSET 22.1583 -0.53 10.8316
                CHANNELS 3 Zrotation Xrotation Yrotation
                JOINT lThumb1
                {
                  OFFSET 0.786 0.112 2.5817
                  CHANNELS 3 Zrotation Xrotation Yrotation
                  JOINT lThumb2
                  {
                    OFFSET 0.3601 -0.878 4.2331
                    CHANNELS 3 Zrotation Xrotation Yrotation
                    JOINT lThumb2_End
                    {
                      OFFSET 1.8127 -1.216 2.2227
                      CHANNELS 3 Zrotation Xrotation Yrotation
                      End Site
                      {
                        OFFSET 0.0181 -0.0122 0.0222
                      }
                    }
                  }
                }
                JOINT lCarpal1
                {
                  OFFSET 0.9571 1.114 1.7695
                  CHANNELS 3 Zrotation Xrotation Yrotation
                  JOINT lIndex1
                  {
                    OFFSET 4.1246 0.487 4.1451
                    CHANNELS 3 Zrotation Xrotation Yrotation
                    JOINT lIndex2
                    {
                      OFFSET 3.4052 -1.454 2.7682
                      CHANNELS 3 Zrotation Xrotation Yrotation
                      JOINT lIndex2_End
                      {
                        OFFSET 1.4531 -1.795 1.2713
                        CHANNELS 3 Zrotation Xrotation Yrotation
                        End Site
                        {
                          OFFSET 0.0145 -0.0179 0.0127
                        }
                      }
                    }
                  }
                  JOINT lMid1
                  {
                    OFFSET 5.6954 0.21 2.1184
                    CHANNELS 3 Zrotation Xrotation Yrotation
                    JOINT lMid2
                    {
                      OFFSET 3.9766 -1.54 2.3863
                      CHANNELS 3 Zrotation Xrotation Yrotation
                      JOINT lMid2_End
                      {
                        OFFSET 1.4042 -1.926 1.125
                        CHANNELS 3 Zrotation Xrotation Yrotation
                        End Site
                        {
                          OFFSET 0.014 -0.0193 0.0113
                        }
                      }
                    }
                  }
                }
                JOINT lCarpal2
                {
                  OFFSET 2.0956 0.66 -0.3894
                  CHANNELS 3 Zrotation Xrotation Yrotation
                  JOINT lRing1
                  {
                    OFFSET 5.0395 -0.09 2.4971
                    CHANNELS 3 Zrotation Xrotation Yrotation
                    JOINT lRing2
                    {
                      OFFSET 3.7921 -1.552 1.4806
                      CHANNELS 3 Zrotation Xrotation Yrotation
                      JOINT lRing2_End
                      {
                        OFFSET 1.4655 -1.808 0.9609
                        CHANNELS 3 Zrotation Xrotation Yrotation
                        End Site
                        {
                          OFFSET 0.0147 -0.0181 0.0096
                        }
                      }
                    }
                  }
                  JOINT lPinky1
                  {
                    OFFSET 4.9141 -1.269 0.3591
                    CHANNELS 3 Zrotation Xrotation Yrotation
                    JOINT lPinky2
                    {
                      OFFSET 3.1477 -1.685 0.8462
                      CHANNELS 3 Zrotation Xrotation Yrotation
                      JOINT lPinky2_End
                      {
                        OFFSET 0.8055 -1.585 0.7955
                        CHANNELS 3 Zrotation Xrotation Yrotation
                        End Site
                        {
                          OFFSET 0.0081 -0.0158 0.008
                        }
                      }
                    }
                  }
                }
              }
            }
          }
        }
        JOINT rCollar
        {
          OFFSET -1.7069 20.075 5.0056
          CHANNELS 3 Zrotation Xrotation Yrotation
          JOINT rShldr
          {
            OFFSET -13.6458 -0.047 -4.849
            CHANNELS 3 Zrotation Xrotation Yrotation
            JOINT rForeArm
            {
              OFFSET -28.3255 -0.9759 2.2888
              CHANNELS 3 Zrotation Xrotation Yrotation
              JOINT rHand
              {
                OFFSET -22.1583 -0.53 10.8316
                CHANNELS 3 Zrotation Xrotation Yrotation
                JOINT rThumb1
                {
                  OFFSET -0.786 0.112 2.5817
                  CHANNELS 3 Zrotation Xrotation Yrotation
                  JOINT rThumb2
                  {
                    OFFSET -0.3601 -0.878 4.2331
                    CHANNELS 3 Zrotation Xrotation Yrotation
                    JOINT rThumb2_End
                    {
                      OFFSET -1.8127 -1.216 2.2227
                      CHANNELS 3 Zrotation Xrotation Yrotation
                      End Site
                      {
                        OFFSET -0.0181 -0.0122 0.0222
                      }
                    }
                  }
                }
                JOINT rCarpal1
                {
                  OFFSET -0.9571 1.114 1.7695
                  CHANNELS 3 Zrotation Xrotation Yrotation
                  JOINT rIndex1
                  {
                    OFFSET -4.1246 0.487 4.1451
                    CHANNELS 3 Zrotation Xrotation Yrotation
                    JOINT rIndex2
                    {
                      OFFSET -3.4052 -1.454 2.7682
                      CHANNELS 3 Zrotation Xrotation Yrotation
                      JOINT rIndex2_End
                      {
                        OFFSET -1.4531 -1.795 1.2713
                        CHANNELS 3 Zrotation Xrotation Yrotation
                        End Site
                        {
                          OFFSET -0.0145 -0.018 0.0127
                        }
                      }
                    }
                  }
                  JOINT rMid1
                  {
                    OFFSET -5.6954 0.21 2.1184
                    CHANNELS 3 Zrotation Xrotation Yrotation
                    JOINT rMid2
                    {
                      OFFSET -3.9766 -1.54 2.3863
                      CHANNELS 3 Zrotation Xrotation Yrotation
                      JOINT rMid2_End
                      {
                        OFFSET -1.4042 -1.926 1.125
                        CHANNELS 3 Zrotation Xrotation Yrotation
                        End Site
                        {
                          OFFSET -0.014 -0.0193 0.0113
                        }
                      }
                    }
                  }
                }
                JOINT rCarpal2
                {
                  OFFSET -2.0956 0.66 -0.3894
                  CHANNELS 3 Zrotation Xrotation Yrotation
                  JOINT rRing1
                  {
                    OFFSET -5.0395 -0.09 2.4971
                    CHANNELS 3 Zrotation Xrotation Yrotation
                    JOINT rRing2
                    {
                      OFFSET -3.7921 -1.552 1.4806
                      CHANNELS 3 Zrotation Xrotation Yrotation
                      JOINT rRing2_End
                      {
                        OFFSET -1.4655 -1.808 0.9609
                        CHANNELS 3 Zrotation Xrotation Yrotation
                        End Site
                        {
                          OFFSET -0.0147 -0.0181 0.0096
                        }
                      }
                    }
                  }
                  JOINT rPinky1
                  {
                    OFFSET -4.9141 -1.269 0.3592
                    CHANNELS 3 Zrotation Xrotation Yrotation
                    JOINT rPinky2
                    {
                      OFFSET -3.1477 -1.685 0.8462
                      CHANNELS 3 Zrotation Xrotation Yrotation
                      JOINT rPinky2_End
                      {
                        OFFSET -0.8055 -1.585 0.7955
                        CHANNELS 3 Zrotation Xrotation Yrotation
                        End Site
                        {
                          OFFSET -0.0081 -0.0158 0.008
                        }
                      }
                    }
                  }
                }
              }
            }
          }
        }
      }
    }
  }
  JOINT lThigh
  {
    OFFSET 8.367 -8.2066 0.5982
    CHANNELS 3 Zrotation Xrotation Yrotation
    JOINT lShin
    {
      OFFSET 2.1923 -43.463 -0.4932
      CHANNELS 3 Zrotation Xrotation Yrotation
      JOINT lFoot
      {
        OFFSET 0.7333 -45.8593 -2.6451
        CHANNELS 3 Zrotation Xrotation Yrotation
        End Site
        {
          OFFSET 2.6618 -4.2699 12.3931
        }
      }
    }
  }
  JOINT rThigh
  {
    OFFSET -8.367 -8.2066 0.5982
    CHANNELS 3 Zrotation Xrotation Yrotation
    JOINT rShin
    {
      OFFSET -2.1923 -43.463 -0.4931
      CHANNELS 3 Zrotation Xrotation Yrotation
      JOINT rFoot
      {
        OFFSET -0.7333 -45.8593 -2.6451
        CHANNELS 3 Zrotation Xrotation Yrotation
        End Site
        {
          OFFSET -2.6618 -4.2699 12.3931
        }
      }
    }
  }
}
MOTION
Frames:	4
Frame Time:	0.0333333
42.3108 7.01895 -4.91957 -0 -25.0011 -0 -0.0192056 -1.0472 -0.128886 -0.040778 -2.0944 -0.258188 -0.040778 -2.0944 -0.258188 10.6445 19.9457 9.32869 -2.65833e-006 12.3713 2.58139e-007 -11.7793 6.81655 -3.05637 -64.2946 -11.8676 -36.3322 18.3094 29.6661 -5.20004 -49.5816 27.4362 10.0955 -0 0 1.59028e-015 -1.27222e-014 -6.36111e-015 7.95139e-015 -3.18055e-015 0 -3.18055e-015 9.54166e-015 0 -0 6.36111e-015 6.36111e-015 6.36111e-015 -9.54166e-015 0 -0 -1.27222e-014 1.27222e-014 -6.36111e-015 6.36111e-015 6.36111e-015 6.36111e-015 -9.54166e-015 0 -0 -1.27222e-014 1.27222e-014 -6.36111e-015 9.54166e-015 0 -0 6.36111e-015 6.36111e-015 6.36111e-015 -9.54166e-015 0 -0 -1.27222e-014 1.27222e-014 -6.36111e-015 6.36111e-015 6.36111e-015 6.36111e-015 -9.54166e-015 0 -0 -1.27222e-014 1.27222e-014 -6.36111e-015 11.9313 6.69054 3.40853 64.0655 -11.9985 36.7393 -20.2778 29.3876 5.381 49.6798 28.0228 -9.9355 4.5323e-007 5.88207e-007 -4.08496e-007 -5.39909e-007 4.16575e-006 -2.04689e-006 4.5323e-007 5.88207e-007 -4.08496e-007 -6.36111e-015 3.18055e-015 -0 4.5323e-007 5.88207e-007 -4.08496e-007 -5.39909e-007 4.16575e-006 -2.04689e-006 4.5323e-007 5.88207e-007 -4.08496e-007 4.5323e-007 5.88207e-007 -4.08496e-007 -5.39909e-007 4.16575e-006 -2.04689e-006 4.5323e-007 5.88207e-007 -4.08496e-007 -6.36111e-015 3.18055e-015 -0 4.5323e-007 5.88207e-007 -4.08496e-007 -5.39909e-007 4.16575e-006 -2.04689e-006 4.5323e-007 5.88207e-007 -4.08496e-007 4.5323e-007 5.88207e-007 -4.08496e-007 -5.39909e-007 4.16575e-006 -2.04689e-006 4.5323e-007 5.88207e-007 -4.08496e-007 57.726 -50.476 126.613 -1.3526 46.5616 2.22724 4.75895 21.8783 7.04783 -57.7378 -50.4653 -126.645 1.31771 46.5528 -2.22369 -4.76391 21.8714 -7.03939 
42.3108 7.01895 -4.85241 -0 -25.0011 -0 -0.0185762 -1.1889 -0.129045 -0.0398443 -2.37777 -0.25856 -0.0398443 -2.37776 -0.25856 10.5726 18.8593 9.54439 3.88126e-006 11.2875 2.5583e-006 -11.9077 7.34979 -2.6053 -64.4227 -11.7071 -36.2822 18.4735 29.5734 -5.48099 -49.771 27.5654 10.4397 -2.11868e-030 9.54166e-015 1.27222e-014 9.21463e-007 -1.15163e-006 -8.29857e-007 3.18055e-015 0 -3.18055e-015 -3.18055e-015 -3.18055e-015 -0 6.36111e-015 1.90833e-014 9.54166e-015 9.21463e-007 -1.15163e-006 -8.29857e-007 1.76556e-031 3.18055e-015 -3.18055e-015 6.36111e-015 1.90833e-014 9.54166e-015 9.21463e-007 -1.15163e-006 -8.29857e-007 1.76556e-031 3.18055e-015 -3.18055e-015 -3.18055e-015 -3.18055e-015 -0 6.36111e-015 1.90833e-014 9.54166e-015 9.21463e-007 -1.15163e-006 -8.29857e-007 1.76556e-031 3.18055e-015 -3.18055e-015 6.36111e-015 1.90833e-014 9.54166e-015 9.21463e-007 -1.15163e-006 -8.29857e-007 1.76556e-031 3.18055e-015 -3.18055e-015 12.0505 7.21273 2.94836 64.1955 -11.8342 36.6892 -20.4438 29.2848 5.66274 49.8795 28.1707 -10.2912 4.53263e-007 5.88192e-007 -4.08495e-007 4.53263e-007 5.88192e-007 -4.08495e-007 4.53263e-007 5.88192e-007 -4.08495e-007 6.36111e-015 0 -0 4.53263e-007 5.88192e-007 -4.08495e-007 4.53263e-007 5.88192e-007 -4.08495e-007 4.53263e-007 5.88192e-007 -4.08495e-007 4.53263e-007 5.88192e-007 -4.08495e-007 4.53263e-007 5.88192e-007 -4.08495e-007 4.53263e-007 5.88192e-007 -4.08495e-007 6.36111e-015 0 -0 4.53263e-007 5.88192e-007 -4.08495e-007 4.53263e-007 5.88192e-007 -4.08495e-007 4.53263e-007 5.88192e-007 -4.08495e-007 4.53263e-007 5.88192e-007 -4.08495e-007 4.53263e-007 5.88192e-007 -4.08495e-007 4.53263e-007 5.88192e-007 -4.08495e-007 57.7259 -50.476 126.613 -1.35258 46.5616 2.2272 4.75896 21.8784 7.0478 -57.7378 -50.4653 -126.645 1.31772 46.5527 -2.2237 -4.76391 21.8714 -7.0394 
42.3108 7.01895 -4.78525 -0 -25.0011 -0 -0.0179515 -1.33051 -0.129184 -0.0389203 -2.66103 -0.258889 -0.0389204 -2.66103 -0.25889 10.5054 17.7698 9.75797 -4.88716e-007 10.2003 1.79048e-006 -12.0405 7.88208 -2.15247 -64.5508 -11.5466 -36.2317 18.6371 29.4801 -5.76141 -49.9615 27.6935 10.7848 1.84312e-006 -2.30312e-006 -1.65976e-006 6.36111e-015 0 4.77083e-015 9.21559e-007 -1.15156e-006 -8.2988e-007 -9.54166e-015 3.18055e-015 6.36111e-015 1.84312e-006 -2.30312e-006 -1.65976e-006 9.54166e-015 0 7.95139e-015 9.21559e-007 -1.15156e-006 -8.2988e-007 1.84312e-006 -2.30312e-006 -1.65976e-006 9.54166e-015 0 7.95139e-015 9.21559e-007 -1.15156e-006 -8.2988e-007 -9.54166e-015 3.18055e-015 6.36111e-015 1.84312e-006 -2.30312e-006 -1.65976e-006 9.54166e-015 0 7.95139e-015 9.21559e-007 -1.15156e-006 -8.2988e-007 1.84312e-006 -2.30312e-006 -1.65976e-006 9.54166e-015 0 7.95139e-015 9.21559e-007 -1.15156e-006 -8.2988e-007 12.174 7.73403 2.48659 64.3255 -11.67 36.6387 -20.609 29.1813 5.94386 50.0805 28.3174 -10.6479 -9.06625e-007 -1.17632e-006 8.17008e-007 2.71987e-006 3.52896e-006 -2.45102e-006 -9.06625e-007 -1.17632e-006 8.17008e-007 9.54166e-015 3.18055e-015 -0 -9.06625e-007 -1.17632e-006 8.17008e-007 2.71987e-006 3.52896e-006 -2.45102e-006 -9.06625e-007 -1.17632e-006 8.17008e-007 -9.06625e-007 -1.17632e-006 8.17008e-007 2.71987e-006 3.52896e-006 -2.45102e-006 -9.06625e-007 -1.17632e-006 8.17008e-007 9.54166e-015 3.18055e-015 -0 -9.06625e-007 -1.17632e-006 8.17008e-007 2.71987e-006 3.52896e-006 -2.45102e-006 -9.06625e-007 -1.17632e-006 8.17008e-007 -9.06625e-007 -1.17632e-006 8.17008e-007 2.71987e-006 3.52896e-006 -2.45102e-006 -9.06625e-007 -1.17632e-006 8.17008e-007 57.7259 -50.476 126.613 -1.35259 46.5616 2.22723 4.75898 21.8784 7.04779 -57.7378 -50.4653 -126.645 1.31773 46.5527 -2.22371 -4.76391 21.8715 -7.0394 
42.3108 7.01895 -4.71809 -0 -25.0011 -0 -0.0173241 -1.47204 -0.129332 -0.0379921 -2.944 -0.259238 -0.0379921 -2.94399 -0.259238 10.4428 16.6768 9.96958 -1.37681e-006 9.10993 -1.66782e-006 -12.1777 8.41312 -1.69791 -64.679 -11.3863 -36.1811 18.7999 29.386 -6.04119 -50.1531 27.8207 11.1307 3.7757e-007 1.27561e-006 1.82762e-006 -3.18055e-015 -3.18055e-015 -0 5.44117e-007 -2.42707e-006 -2.65755e-006 8.82781e-032 3.18055e-015 -1.59028e-015 3.7757e-007 1.27561e-006 1.82762e-006 6.36111e-015 3.18055e-015 3.18055e-015 5.44117e-007 -2.42707e-006 -2.65755e-006 3.7757e-007 1.27561e-006 1.82762e-006 6.36111e-015 3.18055e-015 3.18055e-015 5.44117e-007 -2.42707e-006 -2.65755e-006 8.82781e-032 3.18055e-015 -1.59028e-015 3.7757e-007 1.27561e-006 1.82762e-006 6.36111e-015 3.18055e-015 3.18055e-015 5.44117e-007 -2.42707e-006 -2.65755e-006 3.7757e-007 1.27561e-006 1.82762e-006 6.36111e-015 3.18055e-015 3.18055e-015 5.44117e-007 -2.42707e-006 -2.65755e-006 12.3019 8.25414 2.02321 64.4556 -11.506 36.588 -20.7735 29.077 6.22435 50.2828 28.463 -11.0056 -4.53377e-007 -5.88109e-007 4.08523e-007 -4.53377e-007 -5.88109e-007 4.08523e-007 3.18055e-015 -6.36111e-015 3.18055e-015 -3.18055e-015 0 -6.36111e-015 -4.53377e-007 -5.88109e-007 4.08523e-007 -4.53377e-007 -5.88109e-007 4.08523e-007 0 0 -0 -4.53377e-007 -5.88109e-007 4.08523e-007 -4.53377e-007 -5.88109e-007 4.08523e-007 0 0 -0 -3.18055e-015 0 -6.36111e-015 -4.53377e-007 -5.88109e-007 4.08523e-007 -4.53377e-007 -5.88109e-007 4.08523e-007 0 0 -0 -4.53377e-007 -5.88109e-007 4.08523e-007 -4.53377e-007 -5.88109e-007 4.08523e-007 0 0 -0 57.726 -50.476 126.613 -1.3526 46.5616 2.22724 4.75895 21.8783 7.04783 -57.7378 -50.4653 -126.645 1.31771 46.5528 -2.22369 -4.76391 21.8714 -7.03939 
